<svg xmlns="http://www.w3.org/2000/svg" xmlns:xlink="http://www.w3.org/1999/xlink" contentStyleType="text/css" height="235px" preserveAspectRatio="none" style="width:146px;height:235px;background:#C0C0C0;" version="1.1" viewBox="0 0 146 235" width="146px" zoomAndPan="magnify"><defs/><g><rect fill="#C0C0C0" height="235" style="stroke:none;stroke-width:1.0;" width="146" x="0" y="0"/><!--class thing--><g id="elem_thing"><rect codeLine="4" fill="#F1F1F1" height="96.8906" id="thing" rx="2.5" ry="2.5" style="stroke:#181818;stroke-width:0.5;" width="132" x="7" y="7"/><ellipse cx="51.25" cy="23" fill="#F1F1F1" rx="11" ry="11" style="stroke:#181818;stroke-width:1.0;"/><path d="M54,18.5 Q53.9531,18.6875 53.8281,18.7969 Q53.7031,18.8906 53.5313,18.8906 Q53.4219,18.8906 53.2969,18.8438 Q52.2656,18.4688 51.5,18.4688 Q50.5156,18.4688 49.8594,18.9531 Q49.2031,19.4219 49.2031,20.1406 Q49.2031,20.7969 49.7188,21.2969 Q50.25,21.7969 51.125,21.9844 Q52.9375,22.3438 53.9375,23.3125 Q54.9531,24.2656 54.9531,25.5938 Q54.9531,26.6094 54.3438,27.4219 Q53.75,28.2344 52.7031,28.7031 Q51.6719,29.1719 50.4063,29.1719 Q49.75,29.1719 49.0781,29.0313 Q48.4063,28.9063 47.8594,28.6563 Q47.5156,28.5 47.5156,28.1563 Q47.5156,28.0313 47.5625,27.8906 L47.7344,27.4844 Q47.875,27.125 48.2031,27.125 Q48.3438,27.125 48.4688,27.1719 Q48.875,27.3438 49.4219,27.4375 Q49.9688,27.5156 50.4844,27.5156 Q51.6719,27.5156 52.4219,27.0156 Q53.1875,26.5 53.1875,25.6719 Q53.1875,24.9688 52.5938,24.4531 Q52.0156,23.9375 50.9375,23.7188 Q49.2656,23.375 48.3594,22.4531 Q47.4531,21.5156 47.4531,20.1875 Q47.4531,19.2188 47.9531,18.4688 Q48.4688,17.7031 49.3906,17.2969 Q50.3125,16.875 51.5,16.875 Q52.1094,16.875 52.75,17 Q53.4063,17.125 53.8906,17.3438 Q54.2031,17.5 54.2031,17.7813 Q54.2031,17.875 54.1563,18.0625 L54,18.5 Z " fill="#000000"/><text fill="#000000" font-family="sans-serif" font-size="14" lengthAdjust="spacing" textLength="35" x="71.75" y="27.8467">thing</text><line style="stroke:#181818;stroke-width:0.5;" x1="8" x2="138" y1="39" y2="39"/><text fill="#000000" font-family="sans-serif" font-size="14" lengthAdjust="spacing" textLength="77" x="13" y="55.9951">string desc</text><text fill="#000000" font-family="sans-serif" font-size="14" lengthAdjust="spacing" textLength="120" x="13" y="72.292">string short_desc</text><text fill="#000000" font-family="sans-serif" font-size="14" lengthAdjust="spacing" textLength="92" x="13" y="88.5889">attrib[] attribs</text><line style="stroke:#181818;stroke-width:0.5;" x1="8" x2="138" y1="95.8906" y2="95.8906"/></g><!--class room--><g id="elem_room"><rect codeLine="10" fill="#F1F1F1" height="64.2969" id="room" rx="2.5" ry="2.5" style="stroke:#181818;stroke-width:0.5;" width="82" x="32" y="163.89"/><ellipse cx="53.3" cy="179.89" fill="#F1F1F1" rx="11" ry="11" style="stroke:#181818;stroke-width:1.0;"/><path d="M56.05,175.39 Q56.0031,175.5775 55.8781,175.6869 Q55.7531,175.7806 55.5813,175.7806 Q55.4719,175.7806 55.3469,175.7338 Q54.3156,175.3588 53.55,175.3588 Q52.5656,175.3588 51.9094,175.8431 Q51.2531,176.3119 51.2531,177.0306 Q51.2531,177.6869 51.7688,178.1869 Q52.3,178.6869 53.175,178.8744 Q54.9875,179.2338 55.9875,180.2025 Q57.0031,181.1556 57.0031,182.4838 Q57.0031,183.4994 56.3938,184.3119 Q55.8,185.1244 54.7531,185.5931 Q53.7219,186.0619 52.4563,186.0619 Q51.8,186.0619 51.1281,185.9213 Q50.4563,185.7963 49.9094,185.5463 Q49.5656,185.39 49.5656,185.0463 Q49.5656,184.9213 49.6125,184.7806 L49.7844,184.3744 Q49.925,184.015 50.2531,184.015 Q50.3938,184.015 50.5188,184.0619 Q50.925,184.2338 51.4719,184.3275 Q52.0188,184.4056 52.5344,184.4056 Q53.7219,184.4056 54.4719,183.9056 Q55.2375,183.39 55.2375,182.5619 Q55.2375,181.8588 54.6438,181.3431 Q54.0656,180.8275 52.9875,180.6088 Q51.3156,180.265 50.4094,179.3431 Q49.5031,178.4056 49.5031,177.0775 Q49.5031,176.1088 50.0031,175.3588 Q50.5188,174.5931 51.4406,174.1869 Q52.3625,173.765 53.55,173.765 Q54.1594,173.765 54.8,173.89 Q55.4563,174.015 55.9406,174.2338 Q56.2531,174.39 56.2531,174.6713 Q56.2531,174.765 56.2063,174.9525 L56.05,175.39 Z " fill="#000000"/><text fill="#000000" font-family="sans-serif" font-size="14" lengthAdjust="spacing" textLength="36" x="68.7" y="184.7367">room</text><line style="stroke:#181818;stroke-width:0.5;" x1="33" x2="113" y1="195.89" y2="195.89"/><text fill="#000000" font-family="sans-serif" font-size="14" lengthAdjust="spacing" textLength="70" x="38" y="212.8851">exit[] exits</text><line style="stroke:#181818;stroke-width:0.5;" x1="33" x2="113" y1="220.1869" y2="220.1869"/></g><!--reverse link thing to room--><g id="link_thing_room"><path codeLine="14" d="M73,122.14 C73,141.88 73,146.2 73,163.79 " fill="none" id="thing-backto-room" style="stroke:#181818;stroke-width:1.0;"/><polygon fill="none" points="73,104.14,67,122.14,79,122.14,73,104.14" style="stroke:#181818;stroke-width:1.0;"/></g><!--SRC=[AyxEp2j8B4hCLKXAJCvEByelpKjnpi_9Br9GJZO0GIwkufAYqkGIXPACpBnqXMek1IW02eC4KbABaz75YZFoYqhYKMGIIu1IIT6nK4OnLotSuABy_5maSrChCak0wa0KM1N4NfiQNLsmIYuk0000]--></g></svg>